<svg width="22" height="18" viewBox="0 0 22 18" fill="none" xmlns="http://www.w3.org/2000/svg">
<path fill-rule="evenodd" clip-rule="evenodd" d="M16.22 6.36574C16.3606 6.22529 16.5512 6.1464 16.75 6.1464C16.9488 6.1464 17.1394 6.22529 17.28 6.36574L18.75 7.83573L20.22 6.36574C20.3622 6.23326 20.5502 6.16113 20.7445 6.16456C20.9388 6.16799 21.1242 6.2467 21.2616 6.38411C21.399 6.52153 21.4777 6.70691 21.4812 6.90121C21.4846 7.09551 21.4125 7.28356 21.28 7.42573L19.811 8.89574L21.281 10.3657C21.4176 10.5073 21.4931 10.6967 21.4913 10.8934C21.4895 11.09 21.4105 11.2781 21.2714 11.4171C21.1322 11.5561 20.9441 11.6349 20.7475 11.6365C20.5508 11.6381 20.3614 11.5624 20.22 11.4257L18.75 9.95574L17.28 11.4257C17.1378 11.5582 16.9498 11.6303 16.7555 11.6269C16.5612 11.6235 16.3758 11.5448 16.2384 11.4074C16.101 11.2699 16.0223 11.0846 16.0188 10.8903C16.0154 10.696 16.0875 10.5079 16.22 10.3657L17.69 8.89574L16.22 7.42573C16.0795 7.28511 16.0007 7.09449 16.0007 6.89574C16.0007 6.69698 16.0795 6.50636 16.22 6.36574ZM11.787 0.291735C12.95 -0.475265 14.5 0.359735 14.5 1.75274V16.0387C14.5 17.4327 12.95 18.2667 11.787 17.4997L5.787 13.5447C5.74641 13.5177 5.69879 13.5031 5.65 13.5027H2.75C2.02065 13.5027 1.32118 13.213 0.805456 12.6973C0.289731 12.1816 0 11.4821 0 10.7527V7.03873C0 6.30939 0.289731 5.60992 0.805456 5.09419C1.32118 4.57847 2.02065 4.28874 2.75 4.28874H5.65C5.69903 4.2889 5.74702 4.27464 5.788 4.24774L11.787 0.291735Z" fill="white"/>
</svg>
